<?xml version="1.0" standalone="no"?>
<!DOCTYPE svg PUBLIC "-//W3C//DTD SVG 20010904//EN"
 "http://www.w3.org/TR/2001/REC-SVG-20010904/DTD/svg10.dtd">
<svg version="1.0" xmlns="http://www.w3.org/2000/svg"
 width="612.000000pt" height="408.000000pt" viewBox="0 0 612.000000 408.000000"
 preserveAspectRatio="xMidYMid meet">

<g transform="translate(0.000000,408.000000) scale(0.100000,-0.100000)"
fill="#000000" stroke="none">
<path d="M2905 3910 c-21 -17 -50 -30 -65 -30 -22 0 -29 -6 -36 -32 -7 -22
-17 -34 -37 -39 -15 -4 -47 -24 -70 -44 -23 -20 -54 -47 -70 -61 -15 -13 -32
-24 -38 -24 -6 0 -9 -9 -6 -20 4 -15 0 -19 -16 -17 -19 2 -23 -6 -34 -61 -7
-34 -19 -72 -27 -85 -8 -12 -18 -42 -22 -66 -4 -25 -17 -54 -28 -65 -12 -12
-27 -38 -34 -58 -11 -31 -11 -44 2 -82 8 -25 18 -75 22 -113 4 -37 12 -79 19
-93 6 -14 13 -61 14 -105 3 -128 48 -291 91 -330 9 -8 28 -14 41 -13 22 3 24
-3 49 -122 15 -69 36 -149 48 -178 29 -70 29 -122 -1 -150 -13 -12 -30 -22
-39 -22 -9 0 -18 -7 -22 -15 -3 -8 -12 -15 -20 -15 -15 0 -26 -21 -26 -51 0
-27 -58 -53 -197 -90 -213 -56 -430 -128 -520 -173 -229 -114 -348 -177 -360
-188 -21 -22 -89 -247 -113 -373 -23 -123 -23 -117 -4 -400 6 -87 -16 -345
-36 -425 -5 -19 -16 -64 -25 -99 -16 -62 -16 -63 5 -86 12 -13 43 -33 70 -44
l47 -20 7 -61 7 -60 1609 0 c1011 0 1611 4 1615 10 3 5 -1 67 -9 137 -23 197
-28 328 -30 723 -1 358 -1 366 -24 415 -51 110 -78 141 -201 224 -138 93 -229
140 -418 217 -160 65 -239 104 -295 145 -23 16 -50 29 -60 29 -28 0 -63 40
-99 113 -17 37 -39 67 -50 70 -12 3 -16 11 -12 26 3 11 2 29 -2 38 -6 16 -10
14 -31 -12 -35 -44 -29 -17 9 40 17 26 40 61 50 76 18 28 55 182 82 348 13 80
30 128 23 66 -2 -24 1 -30 16 -30 31 0 85 111 91 185 16 197 26 265 45 285 23
25 24 33 9 72 -19 47 -21 83 -4 83 9 0 14 9 14 23 -1 12 1 29 5 37 4 9 -5 27
-23 47 -22 24 -27 38 -23 60 2 15 1 25 -3 21 -19 -18 -32 13 -25 55 9 46 6 54
-26 80 -13 10 -26 27 -29 38 -5 14 -10 18 -17 11 -6 -6 -21 2 -43 24 -19 19
-39 34 -44 34 -6 0 -19 20 -30 45 -14 31 -26 45 -39 45 -11 0 -22 8 -24 18 -3
12 -33 27 -94 47 -49 16 -94 36 -100 44 -7 9 -20 12 -34 8 -13 -3 -52 3 -87
15 -59 19 -65 19 -82 4 -23 -21 -100 -16 -113 8 -13 23 -30 20 -73 -14z m742
-912 c-3 -8 -6 -5 -6 6 -1 11 2 17 5 13 3 -3 4 -12 1 -19z m20 -165 c-3 -10
-5 -2 -5 17 0 19 2 27 5 18 2 -10 2 -26 0 -35z m-77 -273 c-6 -34 -15 -71 -21
-83 -8 -18 -8 -17 -3 8 4 17 8 46 9 65 3 41 15 84 22 77 2 -3 -1 -33 -7 -67z
m-75 -176 c-52 -175 -50 -163 -26 -135 13 14 21 18 21 10 -1 -21 -60 -87 -60
-67 0 9 4 19 10 23 5 3 7 12 4 19 -5 14 75 281 82 274 2 -3 -12 -58 -31 -124z
m-8 -336 c-3 -8 -6 -5 -6 6 -1 11 2 17 5 13 3 -3 4 -12 1 -19z m-797 -329 c0
-10 -4 -19 -8 -19 -5 0 -14 -10 -20 -22 -10 -21 -11 -20 -11 13 -1 35 15 63
31 53 4 -3 8 -14 8 -25z m36 -20 c2 -32 1 -32 -3 -4 -5 27 -6 28 -13 10 -7
-17 -9 -16 -9 8 -1 19 3 27 12 25 6 -3 13 -20 13 -39z m839 -11 l25 -11 -22
-24 c-22 -24 -44 -29 -67 -14 -11 7 -10 13 4 35 20 29 24 31 60 14z m-1010
-76 c-39 -4 -51 1 -41 16 3 6 20 5 42 -2 l36 -11 -37 -3z m621 -71 c-31 -60
-42 -68 -19 -13 22 54 34 74 39 69 3 -3 -6 -28 -20 -56z m63 -17 c-15 -39 -39
-57 -39 -30 0 8 8 31 17 51 23 48 41 30 22 -21z m-712 -16 c-2 -13 -4 -5 -4
17 -1 22 1 32 4 23 2 -10 2 -28 0 -40z m2143 -1435 c0 -15 -3 -23 -7 -19 -11
10 -11 56 -1 50 4 -3 8 -17 8 -31z"/>
</g>
</svg>
