<?xml version="1.0" standalone="no"?>
<!DOCTYPE svg PUBLIC "-//W3C//DTD SVG 20010904//EN"
 "http://www.w3.org/TR/2001/REC-SVG-20010904/DTD/svg10.dtd">
<svg version="1.0" xmlns="http://www.w3.org/2000/svg"
 width="612.000000pt" height="408.000000pt" viewBox="0 0 612.000000 408.000000"
 preserveAspectRatio="xMidYMid meet">
<metadata>
Created by potrace 1.10, written by Peter Selinger 2001-2011
</metadata>
<g transform="translate(0.000000,408.000000) scale(0.100000,-0.100000)"
fill="#000000" stroke="none">
<path d="M2143 3959 c-12 -12 -32 -23 -45 -24 -12 -1 -26 -3 -30 -4 -4 0 -8
-13 -10 -28 -2 -19 -9 -27 -24 -28 -22 -2 -82 -46 -97 -71 -4 -8 -15 -14 -24
-14 -9 0 -13 -6 -10 -15 4 -8 2 -17 -3 -20 -6 -4 -10 -1 -10 4 0 6 -4 11 -9
11 -6 0 -13 -21 -16 -47 -4 -27 -13 -58 -21 -70 -8 -12 -14 -34 -14 -48 0 -14
-8 -33 -18 -43 -30 -30 -45 -77 -33 -100 6 -11 13 -38 16 -59 4 -21 8 -49 10
-63 3 -14 9 -65 14 -115 10 -93 28 -171 53 -221 10 -22 20 -29 40 -27 25 1 26
-2 42 -89 9 -50 23 -103 31 -118 8 -15 15 -48 16 -75 3 -50 1 -53 -60 -87 -36
-20 -43 -58 -12 -58 11 0 23 -4 26 -10 8 -12 -15 -13 -34 -1 -8 5 -31 1 -60
-10 -25 -9 -82 -27 -126 -39 -143 -39 -299 -92 -355 -120 -30 -15 -102 -52
-160 -81 l-105 -54 -28 -85 c-16 -47 -38 -132 -49 -190 -20 -103 -20 -117 -2
-285 6 -58 -15 -258 -37 -355 -22 -92 -19 -102 33 -130 46 -24 48 -27 48 -67
l0 -43 1191 0 1192 0 -6 68 c-23 262 -26 340 -23 527 5 240 -5 331 -41 393
-30 53 -45 66 -156 141 -79 53 -147 87 -339 166 -38 15 -97 45 -132 66 -36 22
-72 39 -80 39 -9 0 -28 23 -44 51 -15 29 -35 60 -44 70 -9 10 -18 30 -20 46
-3 27 -4 27 -40 -25 -21 -28 -43 -52 -49 -52 -9 0 22 53 41 70 13 12 68 87 77
105 5 11 20 76 32 145 12 69 26 145 31 170 9 47 5 66 -6 34 -4 -10 -15 -30
-24 -44 -41 -63 -121 -293 -122 -352 0 -45 -32 -98 -78 -134 -19 -15 -26 -23
-15 -19 11 4 31 9 44 10 13 2 35 15 50 29 33 32 41 32 41 3 0 -13 5 -28 11
-34 6 -6 9 -36 7 -72 -2 -36 1 -60 7 -58 5 2 8 26 7 53 l-3 49 20 -31 c23 -37
41 -51 41 -32 0 8 5 6 11 -4 5 -10 15 -18 21 -18 6 0 20 -7 30 -17 12 -11 18
-12 18 -4 0 7 13 1 31 -13 17 -14 38 -26 48 -26 9 0 22 -5 29 -12 6 -6 20 -13
29 -15 36 -7 41 -9 54 -20 8 -6 30 -14 49 -18 19 -4 43 -14 52 -22 9 -8 21
-12 26 -9 5 3 28 -8 51 -24 22 -17 41 -28 41 -25 0 22 181 -115 192 -146 4
-11 13 -16 21 -13 10 3 22 -10 36 -41 18 -38 22 -66 23 -150 0 -57 -5 -112
-11 -123 -14 -26 -14 -45 -1 -37 10 6 13 -42 10 -159 -3 -116 -19 -214 -40
-241 -20 -27 -14 -94 8 -81 4 2 13 -2 20 -10 7 -8 8 -14 2 -14 -14 0 -13 -27
3 -37 13 -8 18 -63 6 -63 -4 0 -10 9 -14 20 -10 31 -64 72 -87 64 -13 -4 -18
-2 -14 4 3 5 -1 13 -10 16 -23 9 -31 7 -14 -4 10 -6 -10 -8 -60 -5 l-75 4 65
-9 c109 -14 160 -45 160 -97 0 -24 -1 -25 -17 -11 -11 9 -35 14 -63 13 -25 -1
-51 3 -58 8 -9 7 -16 7 -20 1 -4 -5 -59 -10 -123 -10 -110 0 -116 1 -105 18 6
10 14 18 18 18 5 0 8 5 8 12 0 6 -13 -1 -29 -16 -29 -28 -91 -46 -91 -27 0 6
-7 11 -15 11 -8 0 -15 -4 -15 -9 0 -11 -49 -9 -68 2 -6 5 -12 4 -12 -1 0 -5
-17 -8 -37 -6 -43 3 -116 4 -587 4 -181 0 -331 2 -333 4 -4 4 23 103 57 206
24 73 80 395 80 460 0 34 3 41 15 36 13 -5 14 -2 4 16 -15 27 -29 7 -29 -42
-1 -124 -126 -668 -162 -705 -15 -15 -2 42 42 185 41 132 48 166 79 350 33
198 36 268 12 320 -25 54 -27 45 -5 -19 16 -43 15 -54 -5 -196 -12 -82 -27
-179 -32 -215 -5 -36 -15 -83 -23 -105 -8 -22 -17 -53 -22 -70 -4 -16 -8 -34
-10 -40 -1 -5 -12 -37 -24 -70 -12 -33 -24 -72 -27 -87 -5 -28 -7 -28 -78 -28
-62 0 -74 3 -78 18 -4 14 -6 14 -12 -5 l-7 -22 -37 29 c-43 35 -150 76 -220
86 -28 3 -49 9 -47 13 2 3 -36 7 -86 7 -133 3 -108 -8 50 -21 104 -8 181 -28
244 -62 90 -49 86 -50 -144 -47 -217 4 -226 6 -229 44 0 10 -3 8 -9 -5 -6 -17
-9 -14 -15 17 -4 21 -4 45 -1 54 8 20 -11 45 -28 38 -9 -3 -16 6 -19 25 -8 38
-1 58 21 64 12 3 10 5 -6 6 -20 1 -22 5 -18 49 6 67 7 71 16 37 5 -22 8 -10 9
45 1 85 7 149 14 156 3 3 -1 24 -8 48 -19 63 -30 192 -16 200 6 4 12 39 12 79
l1 72 14 -70 c8 -38 15 -74 17 -78 1 -5 2 32 2 81 0 50 -3 88 -7 85 -5 -2 -8
0 -8 6 0 5 5 13 10 16 5 3 10 14 10 23 0 9 7 36 16 59 18 46 41 55 87 32 19
-9 18 -7 -3 10 -14 11 -23 21 -20 23 23 18 62 37 95 48 22 7 54 22 70 34 72
52 287 126 449 156 27 5 56 16 65 24 9 8 29 16 46 18 23 2 30 -1 33 -17 2 -15
1 -17 -6 -6 -7 10 -11 10 -17 1 -4 -6 -5 -14 -2 -16 3 -3 1 -19 -4 -37 -6 -21
-4 -44 6 -74 8 -24 14 -56 14 -71 -1 -22 -3 -23 -6 -6 -10 51 -93 29 -93 -24
0 -42 20 -156 29 -165 5 -5 6 3 4 17 -3 15 -1 26 6 26 6 0 11 -17 12 -37 0
-21 7 -60 15 -88 7 -27 11 -36 9 -18 -21 155 -14 220 22 206 16 -6 16 -5 5 9
-11 14 -11 22 2 47 20 38 20 70 0 122 -14 33 -14 43 -4 49 7 4 10 15 7 24 -5
12 0 16 22 16 26 0 30 4 36 40 4 21 6 52 5 67 -3 47 0 64 10 58 6 -4 10 7 10
25 0 18 4 29 10 25 6 -3 10 -4 10 -2 0 11 -35 105 -46 122 -7 11 -18 52 -25
90 -6 39 -18 79 -25 91 -17 25 -35 114 -36 174 0 25 -2 38 -5 30 -2 -9 -16
-21 -32 -27 -28 -10 -28 -10 -17 19 8 21 7 33 -2 48 -10 16 -9 18 3 14 12 -5
12 -1 -2 26 -9 18 -17 57 -18 87 -2 30 -7 59 -13 65 -6 6 -8 16 -5 23 2 8 0
22 -6 33 -9 16 -5 27 19 57 31 39 37 50 20 40 -16 -10 -12 11 5 25 8 7 15 29
16 49 0 27 2 31 8 17 7 -19 8 -19 16 0 4 10 9 25 9 32 1 7 8 17 16 22 11 7 11
10 2 10 -7 0 -10 5 -7 10 4 6 11 7 17 4 7 -5 8 -2 4 5 -9 14 48 69 100 97 18
10 35 26 37 36 3 11 14 18 30 18 14 0 28 4 32 10 3 5 13 6 22 3 10 -4 14 -2
10 4 -4 6 3 8 18 5 14 -2 22 -9 18 -15 -4 -7 0 -8 11 -4 38 15 126 20 140 8 8
-6 18 -11 22 -10 10 2 33 -5 74 -24 25 -11 34 -14 57 -16 6 0 15 -10 18 -21 3
-11 11 -20 16 -20 6 0 7 5 3 12 -4 7 -3 8 5 4 6 -4 9 -12 5 -17 -3 -6 3 -13
15 -16 11 -3 18 -10 14 -16 -3 -5 1 -15 10 -21 8 -7 30 -30 49 -51 19 -22 39
-41 46 -43 17 -3 15 9 -5 24 -10 7 -14 16 -10 20 12 12 49 -30 42 -49 -4 -8
-12 -14 -19 -11 -9 4 -12 -6 -11 -33 2 -29 8 -41 29 -53 21 -12 25 -20 21 -42
-4 -15 -1 -36 5 -48 11 -20 10 -21 -11 -9 l-23 12 17 -27 c20 -30 15 -46 -14
-46 -20 0 -35 28 -46 85 -3 17 -11 37 -18 45 -7 8 -16 26 -20 40 -12 43 -71
96 -107 97 -32 2 -32 2 -8 -8 53 -21 126 -120 135 -184 2 -11 6 -32 10 -47 7
-26 5 -28 -26 -29 -33 0 -33 -1 -9 -10 46 -18 60 -39 60 -88 0 -25 4 -41 8
-34 4 6 7 28 6 47 l-2 35 24 -17 c27 -20 29 -26 11 -44 -23 -24 -37 -68 -37
-116 0 -26 -6 -73 -14 -104 -7 -32 -11 -60 -8 -63 13 -13 24 -1 48 50 26 57
29 77 39 204 4 55 10 81 24 95 19 21 19 22 1 61 -25 51 -25 58 1 50 18 -6 19
-5 10 13 -6 11 -14 22 -18 24 -5 3 -3 3 4 2 26 -6 25 20 -2 43 -25 22 -26 25
-10 37 16 12 15 14 -16 20 -19 4 -29 10 -23 14 6 4 13 19 16 34 4 21 -2 35
-23 57 -15 16 -30 27 -33 24 -3 -4 -15 6 -27 20 -11 15 -26 27 -33 27 -6 0
-18 16 -25 36 -9 24 -18 34 -27 30 -8 -3 -14 1 -14 9 0 16 -51 40 -105 51 -18
3 -36 13 -39 21 -4 10 -14 13 -29 9 -12 -3 -41 2 -65 11 -32 12 -46 13 -54 5
-18 -18 -85 -15 -92 3 -7 20 -18 19 -43 -6z m621 -568 c-10 -2 -23 -10 -27
-18 -8 -12 -12 -12 -30 4 -14 12 -18 13 -12 3 6 -11 3 -10 -10 2 -25 23 -12
34 22 19 22 -10 28 -10 36 4 7 13 11 14 24 3 15 -12 14 -13 -3 -17z m-30 -167
c4 -10 1 -14 -6 -12 -15 5 -23 28 -10 28 5 0 13 -7 16 -16z m-842 -104 c-2
-17 2 -37 9 -47 12 -14 12 -16 -1 -11 -23 7 -36 54 -20 72 17 21 17 21 12 -14z
m28 -88 c0 -13 -12 -22 -22 -16 -10 6 -1 24 13 24 5 0 9 -4 9 -8z m724 -50
c-4 -23 -11 -39 -16 -36 -5 3 -6 -5 -3 -18 3 -12 -1 -43 -10 -68 -8 -25 -12
-32 -9 -16 3 15 8 42 11 60 11 57 -4 22 -31 -73 -28 -98 -29 -133 -2 -59 15
40 15 41 10 8 -3 -19 -16 -50 -27 -67 -22 -32 -22 -32 -25 -9 -5 36 93 335
105 323 2 -3 1 -23 -3 -45z m-54 -412 c12 -23 12 -24 -3 -11 -10 7 -17 20 -17
29 0 18 3 16 20 -18z m-618 -12 c-11 -11 -32 -3 -32 12 0 12 34 18 39 7 2 -5
-1 -13 -7 -19z m17 -48 c-6 -16 -15 -30 -20 -30 -11 0 -11 3 1 34 14 37 32 33
19 -4z m-75 -226 c10 -27 7 -34 -16 -35 -13 0 -17 -3 -9 -6 11 -5 11 -7 0 -14
-10 -6 -11 -13 -3 -26 11 -20 8 -53 -6 -53 -11 0 -25 68 -17 77 4 3 1 15 -5
26 -8 16 -7 23 8 34 24 17 41 16 48 -3z m1506 -976 c0 -22 -4 -37 -9 -34 -5 4
-7 -4 -4 -16 4 -21 3 -22 -10 -6 -8 10 -18 14 -22 10 -4 -4 -5 4 -2 18 4 14 7
32 7 40 0 13 1 13 10 0 5 -8 12 -11 16 -7 4 3 2 13 -4 20 -9 10 -8 14 3 14 11
0 15 -12 15 -39z m-2350 -73 c0 -17 -2 -18 -24 -9 -23 9 -20 24 4 24 11 0 20
-7 20 -15z m2377 -113 c-3 -14 -6 -12 -14 8 -6 14 -8 29 -5 34 7 13 24 -22 19
-42z"/>
<path d="M2140 3698 c0 -4 9 -8 20 -8 11 0 20 4 20 8 0 4 -9 8 -20 8 -11 0
-20 -4 -20 -8z"/>
<path d="M1986 3614 c-9 -24 -4 -25 24 -4 24 19 24 20 4 20 -12 0 -25 -7 -28
-16z"/>
<path d="M1967 3563 c-7 -12 -18 -62 -15 -67 2 -2 -7 -15 -18 -28 -15 -16 -19
-29 -14 -43 7 -19 8 -19 17 5 39 100 51 140 43 140 -5 0 -11 -3 -13 -7z"/>
<path d="M2120 3489 c-19 -5 -44 -11 -54 -14 -27 -6 -87 -66 -79 -78 3 -6 10
0 15 12 5 15 13 21 24 17 8 -3 13 -2 10 3 -3 5 0 13 7 19 19 16 126 44 143 38
9 -3 12 -1 9 4 -7 12 -27 11 -75 -1z"/>
<path d="M2440 3491 c0 -6 9 -9 20 -8 11 1 20 5 20 9 0 4 -9 8 -20 8 -11 0
-20 -4 -20 -9z"/>
<path d="M2490 3490 c0 -5 10 -10 23 -10 18 0 19 2 7 10 -19 13 -30 13 -30 0z"/>
<path d="M2566 3485 c10 -5 30 -23 46 -40 33 -34 36 -28 9 16 -14 23 -28 33
-47 34 -23 1 -24 -1 -8 -10z"/>
<path d="M1910 3386 c0 -8 -2 -23 -5 -33 -3 -10 0 -7 7 7 7 14 17 28 23 32 6
5 3 8 -7 8 -10 0 -18 -6 -18 -14z"/>
<path d="M2450 3384 l-25 -15 25 7 c14 3 32 10 40 15 13 7 13 8 0 8 -8 0 -26
-6 -40 -15z"/>
<path d="M1965 3365 l-30 -14 30 6 c29 5 29 5 10 -10 -11 -8 -23 -13 -26 -11
-4 2 -5 -5 -2 -16 4 -16 0 -20 -18 -20 -24 0 -19 -12 7 -16 8 -1 18 5 21 14 3
9 13 25 22 35 12 14 25 49 18 47 -1 -1 -15 -7 -32 -15z"/>
<path d="M2394 3345 c-12 -18 -15 -39 -12 -75 4 -42 3 -47 -8 -32 -7 9 -10 20
-8 24 3 5 0 8 -5 8 -38 0 39 -112 79 -115 14 -2 40 -7 57 -13 18 -6 35 -7 38
-2 3 4 -12 11 -33 15 -51 9 -76 27 -96 68 -20 44 -21 96 0 125 8 12 13 22 10
22 -3 0 -13 -11 -22 -25z"/>
<path d="M2241 3345 c0 -5 6 -19 14 -29 8 -11 15 -15 15 -10 0 6 -7 19 -15 30
-8 10 -14 15 -14 9z"/>
<path d="M2333 3330 c1 -11 4 -20 8 -20 10 0 19 27 12 34 -12 12 -22 5 -20
-14z"/>
<path d="M2580 3346 c0 -7 70 -40 75 -35 2 3 1 10 -3 16 -7 11 -72 29 -72 19z"/>
<path d="M2483 3316 c-4 -7 -15 -16 -23 -19 -11 -4 -11 -6 4 -6 12 -1 16 -6
12 -16 -3 -8 -2 -14 2 -13 4 1 17 -2 30 -6 14 -4 28 -3 36 3 7 6 15 9 17 6 3
-2 5 5 5 15 0 25 -4 25 -26 -2 -18 -22 -20 -22 -36 -6 -13 13 -15 21 -7 29 15
15 89 8 86 -8 -2 -7 4 -13 12 -13 24 0 18 14 -14 33 -35 20 -87 22 -98 3z"/>
<path d="M2056 3289 l-27 -21 21 -15 c12 -8 24 -12 27 -9 4 3 1 6 -5 6 -7 0
-12 5 -12 10 0 6 7 10 15 10 8 0 15 -4 15 -9 0 -15 40 -24 54 -12 7 6 16 8 19
4 10 -9 57 18 57 32 0 7 -12 10 -32 6 -20 -3 -26 -6 -15 -9 9 -2 17 -8 17 -13
0 -9 -75 -3 -92 7 -14 9 -9 22 10 27 13 4 13 5 -4 6 -12 0 -33 -9 -48 -20z"/>
<path d="M2663 3262 c1 -36 3 -40 11 -23 6 14 5 29 -2 44 -9 19 -10 16 -9 -21z"/>
<path d="M2260 3285 c-1 -5 -3 -22 -5 -36 -6 -45 -32 -86 -65 -99 -16 -7 -30
-17 -30 -22 0 -6 16 -1 35 11 19 11 35 16 35 11 0 -24 18 -6 44 43 24 43 27
57 18 73 -11 19 -11 19 -10 -1 1 -21 -18 -75 -26 -75 -2 0 0 16 5 36 6 19 8
43 6 52 -3 9 -6 13 -7 7z"/>
<path d="M1943 3207 c0 -29 2 -36 7 -22 7 20 7 20 14 0 3 -11 19 -29 34 -40
27 -19 27 -19 12 0 -8 11 -20 23 -27 28 -6 4 -14 21 -18 37 -10 46 -22 44 -22
-3z"/>
<path d="M2624 3174 c3 -8 2 -13 -2 -10 -4 2 -23 -5 -42 -15 l-35 -20 30 6
c55 11 101 55 59 55 -10 0 -14 -5 -10 -16z"/>
<path d="M2259 3083 c-46 -7 -78 -63 -36 -63 7 0 6 4 -3 10 -12 7 -10 11 10
18 18 7 26 6 28 -3 2 -7 10 -16 19 -19 14 -6 14 -4 2 10 -12 15 -11 16 11 9
24 -7 24 -6 6 7 -10 8 -16 20 -12 26 4 7 6 11 4 11 -2 -1 -15 -4 -29 -6z"/>
<path d="M2386 3081 c2 -2 -2 -11 -9 -19 -10 -13 -8 -14 12 -7 16 5 21 4 17
-4 -4 -6 -25 -15 -47 -21 -23 -6 -39 -14 -36 -17 4 -3 20 0 38 6 17 6 36 8 43
4 6 -3 8 -3 4 2 -4 4 -3 14 3 22 12 14 31 18 27 6 -2 -5 2 -9 7 -10 6 -2 10 7
10 18 0 18 -6 22 -37 23 -20 1 -35 -1 -32 -3z"/>
<path d="M2360 2979 c0 -5 11 -9 25 -9 14 0 25 2 25 4 0 2 -11 6 -25 8 -14 3
-25 1 -25 -3z"/>
<path d="M2502 2899 c2 -8 8 -18 13 -22 6 -5 -5 -6 -22 -3 -19 3 -33 1 -33 -4
0 -6 -7 -10 -16 -10 -18 0 -106 -41 -100 -47 1 -2 24 6 50 17 25 12 63 23 84
25 20 1 40 3 45 4 13 2 8 28 -9 41 -12 11 -15 11 -12 -1z"/>
<path d="M2182 2882 c-27 -8 -28 -10 -20 -39 5 -19 11 -22 44 -17 21 2 42 10
46 17 4 6 13 12 20 13 74 4 169 18 173 25 3 4 -5 6 -17 4 -13 -2 -54 -6 -91
-10 -37 -4 -80 -13 -95 -21 -36 -18 -72 -18 -72 1 0 8 9 15 20 15 11 0 20 5
20 10 0 6 -1 10 -2 9 -2 -1 -13 -4 -26 -7z"/>
<path d="M2111 2855 c0 -16 4 -39 9 -50 7 -16 9 -14 9 15 0 19 -4 42 -9 50 -7
11 -10 8 -9 -15z"/>
<path d="M2475 2790 c-10 -11 -26 -22 -36 -25 -11 -4 -19 -11 -19 -16 0 -13
41 9 63 34 9 11 17 22 17 24 0 7 -8 2 -25 -17z"/>
<path d="M2313 2759 c11 -7 23 -7 28 -2 5 5 -3 9 -19 11 -24 1 -25 0 -9 -9z"/>
<path d="M2076 2634 c-9 -22 -8 -24 8 -18 7 3 26 -6 41 -20 35 -32 45 -27 13
5 -43 45 -55 51 -62 33z"/>
<path d="M2016 2408 c4 -35 7 -72 7 -83 0 -46 -12 -161 -18 -177 -4 -10 -5
-18 -2 -18 7 0 38 106 35 117 -2 4 4 23 11 42 12 27 12 42 3 77 -15 57 -15 84
1 84 16 0 -14 20 -31 20 -10 0 -11 -14 -6 -62z"/>
<path d="M1639 2394 c-23 -25 -23 -26 -2 -13 13 7 25 19 27 26 8 19 2 16 -25
-13z"/>
<path d="M1973 2389 c-2 -17 1 -18 13 -9 17 15 18 30 1 30 -7 0 -13 -9 -14
-21z"/>
<path d="M2641 2370 c-1 -20 -3 -22 -11 -10 -6 10 -10 11 -10 3 0 -7 -6 -13
-13 -13 -20 0 -47 -33 -47 -59 0 -29 43 -49 65 -31 37 31 23 -18 -19 -67 -11
-13 -15 -23 -9 -23 16 0 40 32 62 82 13 31 30 52 51 63 17 9 28 20 24 26 -4 6
-10 5 -17 -4 -17 -21 -47 -30 -40 -12 3 8 10 12 16 8 6 -3 7 -1 3 5 -4 7 -2
12 5 12 7 0 9 3 6 7 -4 3 -17 -2 -29 -13 -20 -18 -21 -18 -15 -1 4 10 3 16 -2
12 -5 -3 -12 5 -14 17 -4 22 -4 22 -6 -2z m-6 -42 c31 -14 31 -18 0 -40 -23
-17 -55 -15 -55 3 0 9 22 49 27 49 1 0 14 -5 28 -12z"/>
<path d="M2695 2380 c-5 -7 2 -9 21 -4 19 5 25 4 20 -5 -4 -6 -2 -11 4 -11 7
0 10 6 8 13 -6 16 -44 21 -53 7z"/>
<path d="M2378 2333 c-16 -18 -41 -62 -44 -75 -1 -5 -2 -13 -3 -19 0 -5 -5 -7
-11 -4 -6 4 -7 -1 -3 -11 5 -13 3 -15 -7 -9 -9 5 -11 4 -6 -4 4 -6 -4 -47 -19
-91 -15 -44 -25 -85 -23 -92 2 -6 12 15 22 48 25 84 107 254 122 254 8 0 11
-6 8 -14 -3 -8 3 -19 16 -26 17 -9 19 -14 10 -25 -12 -15 -44 -9 -34 6 3 5 0
9 -5 9 -6 0 -11 -7 -11 -15 0 -8 7 -15 15 -15 20 0 20 0 -14 -71 -17 -33 -33
-82 -36 -107 l-5 -47 14 42 c7 22 34 79 60 126 25 47 42 87 38 89 -5 1 -15 16
-23 33 -17 36 -40 42 -61 18z"/>
<path d="M2500 2271 c11 -22 30 -29 30 -11 0 5 -9 14 -21 20 -19 11 -20 10 -9
-9z"/>
<path d="M1964 2259 c-3 -6 -1 -16 5 -22 8 -8 11 -5 11 11 0 24 -5 28 -16 11z"/>
<path d="M2552 2248 c-16 -16 -15 -28 2 -28 16 0 29 27 17 34 -4 3 -13 0 -19
-6z"/>
<path d="M2261 2232 c-6 -12 -11 -27 -11 -34 1 -7 8 0 16 15 9 16 13 31 11 34
-3 2 -10 -4 -16 -15z"/>
<path d="M2355 2220 c-3 -5 -3 -14 0 -20 3 -5 1 -10 -6 -10 -7 0 -9 -3 -5 -7
8 -8 36 23 36 39 0 11 -18 10 -25 -2z"/>
<path d="M2531 2186 c-19 -20 -21 -26 -9 -26 19 0 41 25 36 40 -2 6 -14 0 -27
-14z"/>
<path d="M1950 2146 c0 -10 6 -13 15 -10 20 8 20 -33 -1 -151 l-17 -92 42 -56
c48 -65 52 -80 14 -46 l-28 24 23 -26 c12 -14 22 -29 23 -35 0 -5 27 -31 60
-59 33 -27 68 -57 77 -66 9 -9 43 -30 74 -47 47 -25 59 -28 68 -17 26 32 -15
75 -85 90 -21 5 -14 -1 21 -18 57 -28 66 -37 55 -56 -12 -19 -132 54 -125 77
5 14 4 15 -5 2 -8 -12 -14 -11 -35 9 -14 13 -23 27 -21 31 2 4 -16 28 -40 54
-24 27 -56 68 -71 93 -23 40 -26 52 -20 107 20 188 20 183 -3 195 -17 10 -21
9 -21 -3z m135 -434 c-7 -7 -55 39 -55 52 0 5 13 -3 30 -19 16 -16 28 -31 25
-33z"/>
<path d="M1950 2115 c-1 -5 -3 -30 -5 -55 -2 -25 -8 -58 -15 -74 -6 -18 -7
-33 -1 -39 11 -11 35 120 28 155 -2 13 -5 19 -7 13z"/>
<path d="M2990 2096 c0 -14 4 -27 8 -30 5 -3 6 8 4 25 -5 35 -12 38 -12 5z"/>
<path d="M2423 2091 c-18 -9 -33 -22 -33 -29 0 -9 12 -7 40 9 22 13 40 26 40
31 0 11 -8 9 -47 -11z"/>
<path d="M1870 2049 c0 -13 5 -31 10 -39 7 -11 8 -5 4 20 -8 43 -14 51 -14 19z"/>
<path d="M1099 1622 c5 -10 18 -25 27 -33 11 -9 9 -2 -6 19 -26 35 -36 42 -21
14z"/>
<path d="M2170 1587 c0 -2 15 -16 33 -33 l32 -29 -29 33 c-28 30 -36 37 -36
29z"/>
<path d="M3217 1470 c18 -20 47 -43 65 -53 25 -14 28 -14 13 -2 -11 9 -31 25
-45 37 -56 47 -63 51 -33 18z"/>
<path d="M3070 1200 c-20 -6 -21 -8 -5 -8 11 0 31 4 45 8 20 6 21 8 5 8 -11 0
-31 -4 -45 -8z"/>
</g>
</svg>
